<svg width="116" height="89.804" xmlns="http://www.w3.org/2000/svg">

 <g>
  <title>background</title>
  <rect fill="none" id="canvas_background" height="402" width="582" y="-1" x="-1"/>
 </g>
 <g>
  <title>Layer 1</title>
  <circle id="svg_1" fill="#b277ff" r="16.2" cy="69.802" cx="71.6"/>
  <path id="svg_2" fill="#7734CA" d="m10.900001,73.302002a1.538,1.538 0 0 1 -1.5,-1.5l0,-54.300003a8.839,8.839 0 0 1 9.099999,-8.599998l78.600006,0a1.5,1.5 0 0 1 0,3l-78.700005,0a5.961,5.961 0 0 0 -6.100001,5.599998l0,54.300003a1.391,1.391 0 0 1 -1.4,1.5z"/>
  <path id="svg_3" fill="#7734CA" d="m1.5,64.401993a1.538,1.538 0 0 1 -1.5,-1.499996l0,-54.299997a8.814,8.814 0 0 1 9,-8.6l78.600006,0a1.5,1.5 0 0 1 0,3l-78.500006,0a5.961,5.961 0 0 0 -6.1,5.6l0,54.299997a1.473,1.473 0 0 1 -1.5,1.499996z"/>
  <path id="svg_4" fill="#7734CA" d="m107,18.301998l-78.700001,0a8.9,8.9 0 0 0 -9.099998,8.600002l0,54.299995a8.839,8.839 0 0 0 9.099998,8.600006l78.600002,0a8.9,8.9 0 0 0 9.099998,-8.600006l0,-54.299995a8.752,8.752 0 0 0 -9,-8.600002zm-78.700001,3l78.600002,0a5.961,5.961 0 0 1 6.099998,5.600002l0,8l-90.700001,0l0,-8a5.808,5.808 0 0 1 6,-5.600002zm78.700001,65.500004l-78.700001,0a5.961,5.961 0 0 1 -6.099998,-5.600006l0,-43.299995l90.700001,0l0,43.299995a5.66,5.66 0 0 1 -5.900002,5.600006z"/>
  <circle id="svg_5" fill="#7734CA" r="2.7" cy="27.902" cx="31.2"/>
  <circle id="svg_6" fill="#7734CA" r="2.7" cy="27.902" cx="39.3"/>
  <circle id="svg_7" fill="#7734CA" r="2.7" cy="27.902" cx="47.3"/>
  <text transform="rotate(0.0213033, 67.7334, 61.0285)" font-style="italic" font-weight="bold" xml:space="preserve" text-anchor="start" font-family="Arvo, sans-serif" font-size="43" id="svg_8" y="76.028485" x="30.633415" stroke-width="0" fill="#7734CA">N P</text>
 </g>
</svg>