<?xml version="1.0" encoding="utf-8"?>
<!-- Generator: Adobe Illustrator 16.0.3, SVG Export Plug-In . SVG Version: 6.00 Build 0)  -->
<!DOCTYPE svg PUBLIC "-//W3C//DTD SVG 1.1//EN" "http://www.w3.org/Graphics/SVG/1.1/DTD/svg11.dtd">
<svg version="1.1" id="Capa_1" xmlns="http://www.w3.org/2000/svg" xmlns:xlink="http://www.w3.org/1999/xlink" x="0px" y="0px"
	 width="116px" height="89.805px" viewBox="0 0 116 89.805" enable-background="new 0 0 116 89.805" xml:space="preserve">
<g>
	<title>background</title>
	<rect id="canvas_background" x="-1" y="-1" fill="none" width="582" height="402"/>
</g>
<title>Layer 1</title>
<path id="svg_2" fill="#EEEEEE" stroke="#000000" stroke-miterlimit="10" d="M10.9,73.302c-0.82-0.02-1.48-0.68-1.5-1.5v-54.3
	c0.13-4.88,4.191-8.73,9.071-8.601c0.01,0,0.02,0.001,0.029,0.001h78.6c0.828,0,1.5,0.672,1.5,1.5s-0.672,1.5-1.5,1.5H18.4
	c-3.209-0.081-5.906,2.396-6.1,5.6v54.3c0.061,0.767-0.512,1.436-1.277,1.496C10.981,73.301,10.941,73.302,10.9,73.302z"/>
<path id="svg_3" fill="#EEEEEE" stroke="#000000" stroke-miterlimit="10" d="M1.5,64.402c-0.82-0.021-1.48-0.68-1.5-1.5v-54.3
	c0.117-4.857,4.143-8.704,9-8.601h78.6c0.828,0,1.5,0.672,1.5,1.5c0,0.829-0.672,1.5-1.5,1.5H9.1C5.89,2.922,3.193,5.397,3,8.602
	v54.3c0.015,0.813-0.632,1.484-1.445,1.5C1.536,64.402,1.518,64.402,1.5,64.402z"/>
<path id="svg_4" fill="#EEEEEE" stroke="#000000" stroke-miterlimit="10" d="M107,18.302H28.3c-4.878-0.112-8.937,3.724-9.1,8.601
	v54.3c0.129,4.88,4.191,8.73,9.071,8.601c0.01,0,0.02,0,0.029-0.001H106.9c4.877,0.113,8.937-3.723,9.1-8.6v-54.3
	c-0.082-4.833-4.066-8.685-8.899-8.603C107.067,18.301,107.033,18.301,107,18.302z M28.3,21.302H106.9
	c3.209-0.08,5.906,2.396,6.1,5.601v8H22.3v-8C22.413,23.7,25.098,21.194,28.3,21.302z M108,86.802H27.305
	c-3.291,0.081-6.056-2.395-6.254-5.6v-43.3h93v43.3c-0.033,3.126-2.655,5.635-5.861,5.604C108.127,86.806,108.063,86.804,108,86.802
	z"/>
<circle id="svg_5" fill="#EEEEEE" stroke="#000000" stroke-miterlimit="10" cx="31.2" cy="27.902" r="2.7"/>
<circle id="svg_6" fill="#EEEEEE" stroke="#000000" stroke-miterlimit="10" cx="39.3" cy="27.902" r="2.7"/>
<circle id="svg_7" fill="#EEEEEE" stroke="#000000" stroke-miterlimit="10" cx="47.3" cy="27.902" r="2.7"/>
<text id="svg_8" transform="matrix(1 3.718127e-004 -3.718127e-004 1 28.4995 76.0144)" fill="#EEEEEE" stroke="#000000" stroke-miterlimit="10" font-family="'Arial-BoldItalicMT'" font-size="43">N P</text>
</svg>
